{"accessors" : [{"bufferView" : 0, "byteOffset" : 0, "componentType" : 5123, "count" : 36, "type" : "SCALAR", "max" : [13], "min" : [0]}, {"bufferView" : 1, "byteOffset" : 0, "componentType" : 5126, "count" : 14, "type" : "VEC3", "max" : [-0.7998254299163818, 14.46523666381836, 10.529755592346191], "min" : [-0.8818928599357605, 0.5322226881980896, -10.516162872314453], "name" : "POSITION"}, {"bufferView" : 1, "byteOffset" : 12, "componentType" : 5126, "count" : 14, "type" : "VEC2", "max" : [0.875, 1], "min" : [0.125, 0], "name" : "TEXCOORD_0"}, {"bufferView" : 0, "byteOffset" : 72, "componentType" : 5123, "count" : 36, "type" : "SCALAR", "max" : [13], "min" : [0]}, {"bufferView" : 2, "byteOffset" : 0, "componentType" : 5126, "count" : 14, "type" : "VEC3", "max" : [-0.7998254299163818, 14.46523666381836, 10.529755592346191], "min" : [-0.8818928599357605, 0.5322226881980896, -10.516162872314453], "name" : "POSITION"}, {"bufferView" : 2, "byteOffset" : 12, "componentType" : 5126, "count" : 14, "type" : "VEC2", "max" : [0.875, 1], "min" : [0.125, 0], "name" : "TEXCOORD_0"}, {"bufferView" : 0, "byteOffset" : 144, "componentType" : 5123, "count" : 36, "type" : "SCALAR", "max" : [13], "min" : [0]}, {"bufferView" : 3, "byteOffset" : 0, "componentType" : 5126, "count" : 14, "type" : "VEC3", "max" : [-0.7998254299163818, 14.46523666381836, 10.529755592346191], "min" : [-0.8818928599357605, 0.5322226881980896, -10.516162872314453], "name" : "POSITION"}, {"bufferView" : 3, "byteOffset" : 12, "componentType" : 5126, "count" : 14, "type" : "VEC2", "max" : [0.875, 1], "min" : [0.125, 0], "name" : "TEXCOORD_0"}, {"bufferView" : 0, "byteOffset" : 216, "componentType" : 5123, "count" : 36, "type" : "SCALAR", "max" : [13], "min" : [0]}, {"bufferView" : 4, "byteOffset" : 0, "componentType" : 5126, "count" : 14, "type" : "VEC3", "max" : [-0.7998254299163818, 14.46523666381836, 10.529755592346191], "min" : [-0.8818928599357605, 0.5322226881980896, -10.516162872314453], "name" : "POSITION"}, {"bufferView" : 4, "byteOffset" : 12, "componentType" : 5126, "count" : 14, "type" : "VEC2", "max" : [0.875, 1], "min" : [0.125, 0], "name" : "TEXCOORD_0"}, {"bufferView" : 0, "byteOffset" : 288, "componentType" : 5123, "count" : 36, "type" : "SCALAR", "max" : [13], "min" : [0]}, {"bufferView" : 5, "byteOffset" : 0, "componentType" : 5126, "count" : 14, "type" : "VEC3", "max" : [-0.7998254299163818, 14.46523666381836, 10.529755592346191], "min" : [-0.8818928599357605, 0.5322226881980896, -10.516162872314453], "name" : "POSITION"}, {"bufferView" : 5, "byteOffset" : 12, "componentType" : 5126, "count" : 14, "type" : "VEC2", "max" : [0.875, 1], "min" : [0.125, 0], "name" : "TEXCOORD_0"}, {"bufferView" : 0, "byteOffset" : 360, "componentType" : 5123, "count" : 36, "type" : "SCALAR", "max" : [13], "min" : [0]}, {"bufferView" : 6, "byteOffset" : 0, "componentType" : 5126, "count" : 14, "type" : "VEC3", "max" : [-0.7998254299163818, 14.46523666381836, 10.529755592346191], "min" : [-0.8818928599357605, 0.5322226881980896, -10.516162872314453], "name" : "POSITION"}, {"bufferView" : 6, "byteOffset" : 12, "componentType" : 5126, "count" : 14, "type" : "VEC2", "max" : [0.875, 1], "min" : [0.125, 0], "name" : "TEXCOORD_0"}, {"bufferView" : 0, "byteOffset" : 432, "componentType" : 5123, "count" : 36, "type" : "SCALAR", "max" : [13], "min" : [0]}, {"bufferView" : 7, "byteOffset" : 0, "componentType" : 5126, "count" : 14, "type" : "VEC3", "max" : [-0.7998254299163818, 14.46523666381836, 10.529755592346191], "min" : [-0.8818928599357605, 0.5322226881980896, -10.516162872314453], "name" : "POSITION"}, {"bufferView" : 7, "byteOffset" : 12, "componentType" : 5126, "count" : 14, "type" : "VEC2", "max" : [0.875, 1], "min" : [0.125, 0], "name" : "TEXCOORD_0"}, {"bufferView" : 0, "byteOffset" : 504, "componentType" : 5123, "count" : 36, "type" : "SCALAR", "max" : [13], "min" : [0]}, {"bufferView" : 8, "byteOffset" : 0, "componentType" : 5126, "count" : 14, "type" : "VEC3", "max" : [-0.7998254299163818, 14.46523666381836, 10.529755592346191], "min" : [-0.8818928599357605, 0.5322226881980896, -10.516162872314453], "name" : "POSITION"}, {"bufferView" : 8, "byteOffset" : 12, "componentType" : 5126, "count" : 14, "type" : "VEC2", "max" : [0.875, 1], "min" : [0.125, 0], "name" : "TEXCOORD_0"}, {"bufferView" : 0, "byteOffset" : 576, "componentType" : 5123, "count" : 36, "type" : "SCALAR", "max" : [13], "min" : [0]}, {"bufferView" : 9, "byteOffset" : 0, "componentType" : 5126, "count" : 14, "type" : "VEC3", "max" : [-0.7998254299163818, 14.46523666381836, 10.529755592346191], "min" : [-0.8818928599357605, 0.5322226881980896, -10.516162872314453], "name" : "POSITION"}, {"bufferView" : 9, "byteOffset" : 12, "componentType" : 5126, "count" : 14, "type" : "VEC2", "max" : [0.875, 1], "min" : [0.125, 0], "name" : "TEXCOORD_0"}, {"bufferView" : 0, "byteOffset" : 648, "componentType" : 5123, "count" : 36, "type" : "SCALAR", "max" : [13], "min" : [0]}, {"bufferView" : 10, "byteOffset" : 0, "componentType" : 5126, "count" : 14, "type" : "VEC3", "max" : [-0.7998254299163818, 14.46523666381836, 10.529755592346191], "min" : [-0.8818928599357605, 0.5322226881980896, -10.516162872314453], "name" : "POSITION"}, {"bufferView" : 10, "byteOffset" : 12, "componentType" : 5126, "count" : 14, "type" : "VEC2", "max" : [0.875, 1], "min" : [0.125, 0], "name" : "TEXCOORD_0"}, {"bufferView" : 0, "byteOffset" : 720, "componentType" : 5123, "count" : 36, "type" : "SCALAR", "max" : [13], "min" : [0]}, {"bufferView" : 11, "byteOffset" : 0, "componentType" : 5126, "count" : 14, "type" : "VEC3", "max" : [-0.7998254299163818, 14.46523666381836, 10.529755592346191], "min" : [-0.8818928599357605, 0.5322226881980896, -10.516162872314453], "name" : "POSITION"}, {"bufferView" : 11, "byteOffset" : 12, "componentType" : 5126, "count" : 14, "type" : "VEC2", "max" : [0.875, 1], "min" : [0.125, 0], "name" : "TEXCOORD_0"}, {"bufferView" : 0, "byteOffset" : 792, "componentType" : 5123, "count" : 36, "type" : "SCALAR", "max" : [13], "min" : [0]}, {"bufferView" : 12, "byteOffset" : 0, "componentType" : 5126, "count" : 14, "type" : "VEC3", "max" : [-0.7998254299163818, 14.46523666381836, 10.529755592346191], "min" : [-0.8818928599357605, 0.5322226881980896, -10.516162872314453], "name" : "POSITION"}, {"bufferView" : 12, "byteOffset" : 12, "componentType" : 5126, "count" : 14, "type" : "VEC2", "max" : [0.875, 1], "min" : [0.125, 0], "name" : "TEXCOORD_0"}, {"bufferView" : 0, "byteOffset" : 864, "componentType" : 5123, "count" : 36, "type" : "SCALAR", "max" : [13], "min" : [0]}, {"bufferView" : 13, "byteOffset" : 0, "componentType" : 5126, "count" : 14, "type" : "VEC3", "max" : [-0.7998254299163818, 14.46523666381836, 10.529755592346191], "min" : [-0.8818928599357605, 0.5322226881980896, -10.516162872314453], "name" : "POSITION"}, {"bufferView" : 13, "byteOffset" : 12, "componentType" : 5126, "count" : 14, "type" : "VEC2", "max" : [0.875, 1], "min" : [0.125, 0], "name" : "TEXCOORD_0"}, {"bufferView" : 0, "byteOffset" : 936, "componentType" : 5123, "count" : 36, "type" : "SCALAR", "max" : [13], "min" : [0]}, {"bufferView" : 14, "byteOffset" : 0, "componentType" : 5126, "count" : 14, "type" : "VEC3", "max" : [-0.7998254299163818, 14.46523666381836, 10.529755592346191], "min" : [-0.8818928599357605, 0.5322226881980896, -10.516162872314453], "name" : "POSITION"}, {"bufferView" : 14, "byteOffset" : 12, "componentType" : 5126, "count" : 14, "type" : "VEC2", "max" : [0.875, 1], "min" : [0.125, 0], "name" : "TEXCOORD_0"}, {"bufferView" : 0, "byteOffset" : 1008, "componentType" : 5123, "count" : 36, "type" : "SCALAR", "max" : [13], "min" : [0]}, {"bufferView" : 15, "byteOffset" : 0, "componentType" : 5126, "count" : 14, "type" : "VEC3", "max" : [-0.7998254299163818, 14.46523666381836, 10.529755592346191], "min" : [-0.8818928599357605, 0.5322226881980896, -10.516162872314453], "name" : "POSITION"}, {"bufferView" : 15, "byteOffset" : 12, "componentType" : 5126, "count" : 14, "type" : "VEC2", "max" : [0.875, 1], "min" : [0.125, 0], "name" : "TEXCOORD_0"}, {"bufferView" : 0, "byteOffset" : 1080, "componentType" : 5123, "count" : 36, "type" : "SCALAR", "max" : [13], "min" : [0]}, {"bufferView" : 16, "byteOffset" : 0, "componentType" : 5126, "count" : 14, "type" : "VEC3", "max" : [-0.7998254299163818, 14.46523666381836, 10.529755592346191], "min" : [-0.8818928599357605, 0.5322226881980896, -10.516162872314453], "name" : "POSITION"}, {"bufferView" : 16, "byteOffset" : 12, "componentType" : 5126, "count" : 14, "type" : "VEC2", "max" : [0.875, 1], "min" : [0.125, 0], "name" : "TEXCOORD_0"}, {"bufferView" : 0, "byteOffset" : 1152, "componentType" : 5123, "count" : 36, "type" : "SCALAR", "max" : [13], "min" : [0]}, {"bufferView" : 17, "byteOffset" : 0, "componentType" : 5126, "count" : 14, "type" : "VEC3", "max" : [-0.7998254299163818, 14.46523666381836, 10.529755592346191], "min" : [-0.8818928599357605, 0.5322226881980896, -10.516162872314453], "name" : "POSITION"}, {"bufferView" : 17, "byteOffset" : 12, "componentType" : 5126, "count" : 14, "type" : "VEC2", "max" : [0.875, 1], "min" : [0.125, 0], "name" : "TEXCOORD_0"}, {"bufferView" : 0, "byteOffset" : 1224, "componentType" : 5123, "count" : 36, "type" : "SCALAR", "max" : [13], "min" : [0]}, {"bufferView" : 18, "byteOffset" : 0, "componentType" : 5126, "count" : 14, "type" : "VEC3", "max" : [-0.7998254299163818, 14.46523666381836, 10.529755592346191], "min" : [-0.8818928599357605, 0.5322226881980896, -10.516162872314453], "name" : "POSITION"}, {"bufferView" : 18, "byteOffset" : 12, "componentType" : 5126, "count" : 14, "type" : "VEC2", "max" : [0.875, 1], "min" : [0.125, 0], "name" : "TEXCOORD_0"}, {"bufferView" : 0, "byteOffset" : 1296, "componentType" : 5123, "count" : 36, "type" : "SCALAR", "max" : [13], "min" : [0]}, {"bufferView" : 19, "byteOffset" : 0, "componentType" : 5126, "count" : 14, "type" : "VEC3", "max" : [-0.7998254299163818, 14.46523666381836, 10.529755592346191], "min" : [-0.8818928599357605, 0.5322226881980896, -10.516162872314453], "name" : "POSITION"}, {"bufferView" : 19, "byteOffset" : 12, "componentType" : 5126, "count" : 14, "type" : "VEC2", "max" : [0.875, 1], "min" : [0.125, 0], "name" : "TEXCOORD_0"}, {"bufferView" : 0, "byteOffset" : 1368, "componentType" : 5123, "count" : 36, "type" : "SCALAR", "max" : [13], "min" : [0]}, {"bufferView" : 20, "byteOffset" : 0, "componentType" : 5126, "count" : 14, "type" : "VEC3", "max" : [-0.7998254299163818, 14.46523666381836, 10.529755592346191], "min" : [-0.8818928599357605, 0.5322226881980896, -10.516162872314453], "name" : "POSITION"}, {"bufferView" : 20, "byteOffset" : 12, "componentType" : 5126, "count" : 14, "type" : "VEC2", "max" : [0.875, 1], "min" : [0.125, 0], "name" : "TEXCOORD_0"}], "asset" : {"generator" : "Aspose.3D 25.11.0", "version" : "2.0"}, "buffers" : [{"uri" : "data:application/octet-stream;base64,", "byteLength" : 7124}], "bufferViews" : [{"buffer" : 0, "byteOffset" : 0, "byteLength" : 1440, "target" : 34963}, {"buffer" : 0, "byteOffset" : 1444, "byteLength" : 280, "byteStride" : 20, "target" : 34962}, {"buffer" : 0, "byteOffset" : 1728, "byteLength" : 280, "byteStride" : 20, "target" : 34962}, {"buffer" : 0, "byteOffset" : 2012, "byteLength" : 280, "byteStride" : 20, "target" : 34962}, {"buffer" : 0, "byteOffset" : 2296, "byteLength" : 280, "byteStride" : 20, "target" : 34962}, {"buffer" : 0, "byteOffset" : 2580, "byteLength" : 280, "byteStride" : 20, "target" : 34962}, {"buffer" : 0, "byteOffset" : 2864, "byteLength" : 280, "byteStride" : 20, "target" : 34962}, {"buffer" : 0, "byteOffset" : 3148, "byteLength" : 280, "byteStride" : 20, "target" : 34962}, {"buffer" : 0, "byteOffset" : 3432, "byteLength" : 280, "byteStride" : 20, "target" : 34962}, {"buffer" : 0, "byteOffset" : 3716, "byteLength" : 280, "byteStride" : 20, "target" : 34962}, {"buffer" : 0, "byteOffset" : 4000, "byteLength" : 280, "byteStride" : 20, "target" : 34962}, {"buffer" : 0, "byteOffset" : 4284, "byteLength" : 280, "byteStride" : 20, "target" : 34962}, {"buffer" : 0, "byteOffset" : 4568, "byteLength" : 280, "byteStride" : 20, "target" : 34962}, {"buffer" : 0, "byteOffset" : 4852, "byteLength" : 280, "byteStride" : 20, "target" : 34962}, {"buffer" : 0, "byteOffset" : 5136, "byteLength" : 280, "byteStride" : 20, "target" : 34962}, {"buffer" : 0, "byteOffset" : 5420, "byteLength" : 280, "byteStride" : 20, "target" : 34962}, {"buffer" : 0, "byteOffset" : 5704, "byteLength" : 280, "byteStride" : 20, "target" : 34962}, {"buffer" : 0, "byteOffset" : 5988, "byteLength" : 280, "byteStride" : 20, "target" : 34962}, {"buffer" : 0, "byteOffset" : 6272, "byteLength" : 280, "byteStride" : 20, "target" : 34962}, {"buffer" : 0, "byteOffset" : 6556, "byteLength" : 280, "byteStride" : 20, "target" : 34962}, {"buffer" : 0, "byteOffset" : 6840, "byteLength" : 280, "byteStride" : 20, "target" : 34962}], "cameras" : [{"perspective" : {"aspectRatio" : 1.3333333333333333, "yfov" : 0.43833943764363487, "zfar" : 4000, "znear" : 0.1}, "type" : "perspective", "name" : "perspShape"}, {"orthographic" : {"xmag" : 1, "ymag" : 1, "zfar" : 4000, "znear" : 0.1}, "type" : "orthographic", "name" : "topShape"}, {"orthographic" : {"xmag" : 1, "ymag" : 1, "zfar" : 4000, "znear" : 0.1}, "type" : "orthographic", "name" : "frontShape"}, {"orthographic" : {"xmag" : 1, "ymag" : 1, "zfar" : 4000, "znear" : 0.1}, "type" : "orthographic", "name" : "sideShape"}], "meshes" : [{"primitives" : [{"attributes" : {"POSITION" : 1, "TEXCOORD_0" : 2}, "indices" : 0, "mode" : 4}], "name" : "single_page_rigged_V3:polySurfaceShape1"}, {"primitives" : [{"attributes" : {"POSITION" : 4, "TEXCOORD_0" : 5}, "indices" : 3, "mode" : 4}], "name" : "single_page_rigged_V4:polySurfaceShape1"}, {"primitives" : [{"attributes" : {"POSITION" : 7, "TEXCOORD_0" : 8}, "indices" : 6, "mode" : 4}], "name" : "single_page_rigged_V5:polySurfaceShape1"}, {"primitives" : [{"attributes" : {"POSITION" : 10, "TEXCOORD_0" : 11}, "indices" : 9, "mode" : 4}], "name" : "single_page_rigged_V6:polySurfaceShape1"}, {"primitives" : [{"attributes" : {"POSITION" : 13, "TEXCOORD_0" : 14}, "indices" : 12, "mode" : 4}], "name" : "single_page_rigged_V7:polySurfaceShape1"}, {"primitives" : [{"attributes" : {"POSITION" : 16, "TEXCOORD_0" : 17}, "indices" : 15, "mode" : 4}], "name" : "single_page_rigged_V8:polySurfaceShape1"}, {"primitives" : [{"attributes" : {"POSITION" : 19, "TEXCOORD_0" : 20}, "indices" : 18, "mode" : 4}], "name" : "single_page_rigged_V9:polySurfaceShape1"}, {"primitives" : [{"attributes" : {"POSITION" : 22, "TEXCOORD_0" : 23}, "indices" : 21, "mode" : 4}], "name" : "single_page_rigged_V10:polySurfaceShape1"}, {"primitives" : [{"attributes" : {"POSITION" : 25, "TEXCOORD_0" : 26}, "indices" : 24, "mode" : 4}], "name" : "single_page_rigged_V11:polySurfaceShape1"}, {"primitives" : [{"attributes" : {"POSITION" : 28, "TEXCOORD_0" : 29}, "indices" : 27, "mode" : 4}], "name" : "single_page_rigged_V12:polySurfaceShape1"}, {"primitives" : [{"attributes" : {"POSITION" : 31, "TEXCOORD_0" : 32}, "indices" : 30, "mode" : 4}], "name" : "single_page_rigged_V13:polySurfaceShape1"}, {"primitives" : [{"attributes" : {"POSITION" : 34, "TEXCOORD_0" : 35}, "indices" : 33, "mode" : 4}], "name" : "single_page_rigged_V14:polySurfaceShape1"}, {"primitives" : [{"attributes" : {"POSITION" : 37, "TEXCOORD_0" : 38}, "indices" : 36, "mode" : 4}], "name" : "single_page_rigged_V15:polySurfaceShape1"}, {"primitives" : [{"attributes" : {"POSITION" : 40, "TEXCOORD_0" : 41}, "indices" : 39, "mode" : 4}], "name" : "single_page_rigged_V16:polySurfaceShape1"}, {"primitives" : [{"attributes" : {"POSITION" : 43, "TEXCOORD_0" : 44}, "indices" : 42, "mode" : 4}], "name" : "single_page_rigged_V17:polySurfaceShape1"}, {"primitives" : [{"attributes" : {"POSITION" : 46, "TEXCOORD_0" : 47}, "indices" : 45, "mode" : 4}], "name" : "single_page_rigged_V18:polySurfaceShape1"}, {"primitives" : [{"attributes" : {"POSITION" : 49, "TEXCOORD_0" : 50}, "indices" : 48, "mode" : 4}], "name" : "single_page_rigged_V19:polySurfaceShape1"}, {"primitives" : [{"attributes" : {"POSITION" : 52, "TEXCOORD_0" : 53}, "indices" : 51, "mode" : 4}], "name" : "single_page_rigged_V20:polySurfaceShape1"}, {"primitives" : [{"attributes" : {"POSITION" : 55, "TEXCOORD_0" : 56}, "indices" : 54, "mode" : 4}], "name" : "single_page_rigged_V21:polySurfaceShape1"}, {"primitives" : [{"attributes" : {"POSITION" : 58, "TEXCOORD_0" : 59}, "indices" : 57, "mode" : 4}], "name" : "single_page_rigged_V22:polySurfaceShape1"}], "nodes" : [{"camera" : 0, "matrix" : [0.9998476951563913, -1.7347235044969538E-18, 0.01745240643728307, 0, 0.004262997499199448, 0.9697087280814772, -0.24422696316116588, 0, -0.016923750848258753, 0.2442641657767337, 0.9695610367453008, 0, 9.395617485046387, 28.752880096435547, 90.3625717163086, 1], "name" : "persp"}, {"camera" : 1, "matrix" : [1, 0, 0, 0, 0, 6.123233995736766E-17, -1, 0, 0, 1, 6.123233995736766E-17, 0, 6.551949977874756, 1000.1010131835938, -0.3002089560031891, 1], "name" : "top"}, {"camera" : 2, "matrix" : [1, 0, 0, 0, 0, 1, 0, 0, 0, 0, 1, 0, 7.520535945892334, 2.9114830493927, 1000.248779296875, 1], "name" : "front"}, {"camera" : 3, "matrix" : [6.123233995736766E-17, 0, -1, 0, 0, 1, 0, 0, 1, 0, 6.123233995736766E-17, 0, 1000.0999755859375, 22.12993049621582, -0.17641279101371765, 1], "name" : "side"}, {"mesh" : 0, "name" : "page_1"}, {"mesh" : 1, "name" : "page_2"}, {"mesh" : 2, "name" : "page_3"}, {"mesh" : 3, "name" : "page_4"}, {"mesh" : 4, "name" : "page_5"}, {"mesh" : 5, "name" : "page_6"}, {"mesh" : 6, "name" : "page_7"}, {"mesh" : 7, "name" : "page_8"}, {"mesh" : 8, "name" : "page_9"}, {"mesh" : 9, "name" : "page_10"}, {"mesh" : 10, "name" : "page_11"}, {"mesh" : 11, "name" : "page_12"}, {"mesh" : 12, "name" : "page_13"}, {"mesh" : 13, "name" : "page_14"}, {"mesh" : 14, "name" : "page_15"}, {"mesh" : 15, "name" : "page_16"}, {"mesh" : 16, "name" : "page_17"}, {"mesh" : 17, "name" : "page_18"}, {"mesh" : 18, "name" : "page_19"}, {"mesh" : 19, "name" : "page_20"}, {"children" : [4, 5, 6, 7, 8, 9, 10, 11, 12, 13, 14, 15, 16, 17, 18, 19, 20, 21, 22, 23], "name" : "pages_geo_grp"}, {"children" : [24], "matrix" : [6.123233995736766E-17, -1, 0, 0, 1, 6.123233995736766E-17, 0, 0, 0, 0, 1, 0, 0, 0, 0, 1], "name" : "book_geo_grp"}, {"children" : [25], "name" : "openable_book_scale_this"}], "scene" : 0, "scenes" : [{"nodes" : [0, 1, 2, 3, 26]}]}